HIERARCHY
ROOT Hips
{
	OFFSET 0.000000 87.230942 0.000000
	CHANNELS 6 Xposition Yposition Zposition Xrotation Yrotation Zrotation
	JOINT Pelvis
	{
		OFFSET 0.000000 0.000000 0.000000
		CHANNELS 3 Xrotation Yrotation Zrotation
		JOINT LeftUpLeg
		{
			OFFSET 12.017000 -9.376404 -2.439400
			CHANNELS 3 Xrotation Yrotation Zrotation
			JOINT LeftLeg
			{
				OFFSET -0.007312 -32.846973 2.110600
				CHANNELS 3 Xrotation Yrotation Zrotation
				JOINT LeftFoot
				{
					OFFSET 0.007312 -32.065170 -0.570400
					CHANNELS 3 Xrotation Yrotation Zrotation
					JOINT LeftToeBase
					{
						OFFSET 0.728300 -11.045900 13.180700
						CHANNELS 3 Xrotation Yrotation Zrotation
						End Site
						{
							OFFSET 0.000000 17.212589 0.000000
						}
					}
				}
				JOINT LeftPantLeg
				{
					OFFSET 0.002788 -16.709013 -3.143600
					CHANNELS 3 Xrotation Yrotation Zrotation
					End Site
					{
						OFFSET -0.605125 24.528742 0.000000
					}
				}
			}
			JOINT Left_Butt
			{
				OFFSET -6.630234 1.326584 -3.183700
				CHANNELS 3 Xrotation Yrotation Zrotation
				End Site
				{
					OFFSET -0.498041 20.188049 0.000000
				}
			}
		}
		JOINT RightUpLeg
		{
			OFFSET -11.717000 -9.376404 -2.439400
			CHANNELS 3 Xrotation Yrotation Zrotation
			JOINT RightLeg
			{
				OFFSET -0.003241 -32.846912 2.110600
				CHANNELS 3 Xrotation Yrotation Zrotation
				JOINT RightFoot
				{
					OFFSET 0.003241 -32.065136 -0.570500
					CHANNELS 3 Xrotation Yrotation Zrotation
					JOINT RightToeBase
					{
						OFFSET -0.728300 -11.045901 13.180700
						CHANNELS 3 Xrotation Yrotation Zrotation
						End Site
						{
							OFFSET 0.000000 17.212593 0.000000
						}
					}
				}
				JOINT RightPantLeg
				{
					OFFSET 0.008142 -16.708982 -3.143700
					CHANNELS 3 Xrotation Yrotation Zrotation
					End Site
					{
						OFFSET 0.605088 24.528715 0.000000
					}
				}
			}
			JOINT Right_Butt
			{
				OFFSET 6.630732 1.326584 -3.183700
				CHANNELS 3 Xrotation Yrotation Zrotation
				End Site
				{
					OFFSET 0.498015 20.188240 0.000000
				}
			}
		}
	}
	JOINT Spine
	{
		OFFSET -0.062400 7.848404 3.918300
		CHANNELS 3 Xrotation Yrotation Zrotation
		JOINT Spine1
		{
			OFFSET -0.072800 11.422302 0.713400
			CHANNELS 3 Xrotation Yrotation Zrotation
			JOINT Spine2
			{
				OFFSET -0.083200 13.054001 -1.931600
				CHANNELS 3 Xrotation Yrotation Zrotation
				JOINT Neck
				{
					OFFSET -0.092200 14.121796 -5.138800
					CHANNELS 3 Xrotation Yrotation Zrotation
					JOINT Head
					{
						OFFSET 0.000200 10.447403 -0.842000
						CHANNELS 3 Xrotation Yrotation Zrotation
						JOINT Visor
						{
							OFFSET 0.457100 25.671204 16.550400
							CHANNELS 3 Xrotation Yrotation Zrotation
							End Site
							{
								OFFSET 0.000000 26.061493 0.000000
							}
						}
						JOINT HairMidA
						{
							OFFSET 0.459400 31.585403 8.437400
							CHANNELS 3 Xrotation Yrotation Zrotation
							End Site
							{
								OFFSET 0.000000 26.061493 0.000000
							}
						}
						JOINT HairMidB
						{
							OFFSET 0.464000 33.309204 -8.389700
							CHANNELS 3 Xrotation Yrotation Zrotation
							End Site
							{
								OFFSET 0.000000 26.061493 0.000000
							}
						}
						JOINT HairMidC
						{
							OFFSET 0.466600 27.991196 -17.375099
							CHANNELS 3 Xrotation Yrotation Zrotation
							End Site
							{
								OFFSET 0.000000 26.061493 0.000000
							}
						}
						JOINT HairMidD
						{
							OFFSET 0.467700 17.888092 -21.169500
							CHANNELS 3 Xrotation Yrotation Zrotation
							End Site
							{
								OFFSET 0.000000 26.061493 0.000000
							}
						}
						JOINT HairMidE
						{
							OFFSET 5.325700 3.514603 -14.369699
							CHANNELS 3 Xrotation Yrotation Zrotation
							End Site
							{
								OFFSET 0.000000 26.061493 0.000000
							}
						}
						JOINT HairMidF
						{
							OFFSET -4.394100 3.514603 -14.372400
							CHANNELS 3 Xrotation Yrotation Zrotation
							End Site
							{
								OFFSET 0.000000 26.061493 0.000000
							}
						}
						JOINT HairLeftA
						{
							OFFSET 15.319900 25.746506 2.623300
							CHANNELS 3 Xrotation Yrotation Zrotation
							End Site
							{
								OFFSET 0.000000 26.061493 0.000000
							}
						}
						JOINT HairLeftB
						{
							OFFSET 12.619500 29.289398 -8.731499
							CHANNELS 3 Xrotation Yrotation Zrotation
							End Site
							{
								OFFSET 0.000000 26.061493 0.000000
							}
						}
						JOINT HairLeftC
						{
							OFFSET 15.714800 15.959900 2.909800
							CHANNELS 3 Xrotation Yrotation Zrotation
							End Site
							{
								OFFSET 0.000000 26.061493 0.000000
							}
						}
						JOINT HairLeftD
						{
							OFFSET 16.101700 18.437408 -7.553200
							CHANNELS 3 Xrotation Yrotation Zrotation
							End Site
							{
								OFFSET 0.000000 26.061493 0.000000
							}
						}
						JOINT HairLeftE
						{
							OFFSET 9.731900 17.915009 -18.316799
							CHANNELS 3 Xrotation Yrotation Zrotation
							End Site
							{
								OFFSET 0.000000 26.061493 0.000000
							}
						}
						JOINT HairLeftF
						{
							OFFSET 11.204300 4.953598 -9.668100
							CHANNELS 3 Xrotation Yrotation Zrotation
							End Site
							{
								OFFSET 0.000000 26.061493 0.000000
							}
						}
						JOINT HairRightA
						{
							OFFSET -14.397900 25.746307 2.615100
							CHANNELS 3 Xrotation Yrotation Zrotation
							End Site
							{
								OFFSET 0.000000 26.061493 0.000000
							}
						}
						JOINT HairRightB
						{
							OFFSET -11.691200 29.289200 -8.738199
							CHANNELS 3 Xrotation Yrotation Zrotation
							End Site
							{
								OFFSET 0.000000 26.061493 0.000000
							}
						}
						JOINT HairRightC
						{
							OFFSET -14.792900 15.959702 2.901400
							CHANNELS 3 Xrotation Yrotation Zrotation
							End Site
							{
								OFFSET 0.000000 26.061493 0.000000
							}
						}
						JOINT HairRightD
						{
							OFFSET -15.174000 18.437195 -7.561900
							CHANNELS 3 Xrotation Yrotation Zrotation
							End Site
							{
								OFFSET 0.000000 26.061493 0.000000
							}
						}
						JOINT HairRightE
						{
							OFFSET -8.798200 17.914902 -18.322001
							CHANNELS 3 Xrotation Yrotation Zrotation
							End Site
							{
								OFFSET 0.000000 26.061493 0.000000
							}
						}
						JOINT HairRightF
						{
							OFFSET -10.275200 4.953506 -9.674099
							CHANNELS 3 Xrotation Yrotation Zrotation
							End Site
							{
								OFFSET 0.000000 26.061493 0.000000
							}
						}
					}
				}
				JOINT LeftShoulder
				{
					OFFSET 5.133500 7.341202 -1.867600
					CHANNELS 3 Xrotation Yrotation Zrotation
					JOINT LeftArm
					{
						OFFSET 8.072663 0.936867 -2.176600
						CHANNELS 3 Xrotation Yrotation Zrotation
						JOINT LeftForeArm
						{
							OFFSET 31.271999 0.000000 0.000000
							CHANNELS 3 Xrotation Yrotation Zrotation
							JOINT LeftHand
							{
								OFFSET 31.771030 0.000000 0.000000
								CHANNELS 3 Xrotation Yrotation Zrotation
								JOINT LeftHandThumb1
								{
									OFFSET 2.886520 -2.557846 4.416640
									CHANNELS 3 Xrotation Yrotation Zrotation
									JOINT LeftHandThumb2
									{
										OFFSET 2.371025 -1.368912 1.368911
										CHANNELS 3 Xrotation Yrotation Zrotation
										JOINT LeftHandThumb3
										{
											OFFSET 2.243378 -1.295212 1.295213
											CHANNELS 3 Xrotation Yrotation Zrotation
											End Site
											{
												OFFSET -0.332611 2.876945 0.020015
											}
										}
									}
								}
								JOINT LeftHandIndex1
								{
									OFFSET 8.568985 -0.641945 3.119977
									CHANNELS 3 Xrotation Yrotation Zrotation
									JOINT LeftHandIndex2
									{
										OFFSET 3.348503 0.000000 0.000000
										CHANNELS 3 Xrotation Yrotation Zrotation
										JOINT LeftHandIndex3
										{
											OFFSET 3.314552 0.000000 0.000000
											CHANNELS 3 Xrotation Yrotation Zrotation
											End Site
											{
												OFFSET -1.032898 3.075485 0.678796
											}
										}
									}
								}
								JOINT LeftHandMiddle1
								{
									OFFSET 8.124603 0.000000 0.000000
									CHANNELS 3 Xrotation Yrotation Zrotation
									JOINT LeftHandMiddle2
									{
										OFFSET 4.166275 0.000000 0.000000
										CHANNELS 3 Xrotation Yrotation Zrotation
										JOINT LeftHandMiddle3
										{
											OFFSET 3.018135 0.000000 0.000000
											CHANNELS 3 Xrotation Yrotation Zrotation
											End Site
											{
												OFFSET -1.032700 2.767982 0.617226
											}
										}
									}
								}
								JOINT LeftHandRing1
								{
									OFFSET 8.571686 -0.031357 -2.884048
									CHANNELS 3 Xrotation Yrotation Zrotation
									JOINT LeftHandRing2
									{
										OFFSET 3.671181 0.000000 0.000000
										CHANNELS 3 Xrotation Yrotation Zrotation
										JOINT LeftHandRing3
										{
											OFFSET 2.728851 0.000000 0.000000
											CHANNELS 3 Xrotation Yrotation Zrotation
											End Site
											{
												OFFSET -0.815796 2.539223 0.577389
											}
										}
									}
								}
								JOINT LeftHandPinky1
								{
									OFFSET 7.854515 -0.675232 -5.213020
									CHANNELS 3 Xrotation Yrotation Zrotation
									JOINT LeftHandPinky2
									{
										OFFSET 3.068596 0.000000 0.000000
										CHANNELS 3 Xrotation Yrotation Zrotation
										JOINT LeftHandPinky3
										{
											OFFSET 2.396042 0.000000 0.000000
											CHANNELS 3 Xrotation Yrotation Zrotation
											End Site
											{
												OFFSET -0.524597 2.267998 0.567429
											}
										}
									}
								}
							}
							JOINT LeftSleeve
							{
								OFFSET 19.684509 -0.200119 0.476146
								CHANNELS 3 Xrotation Yrotation Zrotation
								End Site
								{
									OFFSET -0.031017 25.731133 -0.002868
								}
							}
						}
					}
				}
				JOINT RightShoulder
				{
					OFFSET -4.395900 7.341202 -1.870200
					CHANNELS 3 Xrotation Yrotation Zrotation
					JOINT RightArm
					{
						OFFSET -8.071453 0.936867 -2.181100
						CHANNELS 3 Xrotation Yrotation Zrotation
						JOINT RightForeArm
						{
							OFFSET -31.272011 0.000000 0.000000
							CHANNELS 3 Xrotation Yrotation Zrotation
							JOINT RightHand
							{
								OFFSET -31.771019 0.000000 0.000000
								CHANNELS 3 Xrotation Yrotation Zrotation
								JOINT RightHandThumb1
								{
									OFFSET -2.886520 -2.557808 4.416626
									CHANNELS 3 Xrotation Yrotation Zrotation
									JOINT RightHandThumb2
									{
										OFFSET -2.371056 -1.368927 1.368928
										CHANNELS 3 Xrotation Yrotation Zrotation
										JOINT RightHandThumb3
										{
											OFFSET -2.243362 -1.295204 1.295206
											CHANNELS 3 Xrotation Yrotation Zrotation
											End Site
											{
												OFFSET 0.332642 2.876938 0.020047
											}
										}
									}
								}
								JOINT RightHandIndex1
								{
									OFFSET -8.568993 -0.641953 3.120017
									CHANNELS 3 Xrotation Yrotation Zrotation
									JOINT RightHandIndex2
									{
										OFFSET -3.348518 0.000000 0.000000
										CHANNELS 3 Xrotation Yrotation Zrotation
										JOINT RightHandIndex3
										{
											OFFSET -3.314552 0.000000 0.000000
											CHANNELS 3 Xrotation Yrotation Zrotation
											End Site
											{
												OFFSET 1.032898 3.075478 0.678804
											}
										}
									}
								}
								JOINT RightHandMiddle1
								{
									OFFSET -8.124588 0.000000 0.000000
									CHANNELS 3 Xrotation Yrotation Zrotation
									JOINT RightHandMiddle2
									{
										OFFSET -4.166275 0.000000 0.000000
										CHANNELS 3 Xrotation Yrotation Zrotation
										JOINT RightHandMiddle3
										{
											OFFSET -3.018097 0.000000 0.000000
											CHANNELS 3 Xrotation Yrotation Zrotation
											End Site
											{
												OFFSET 1.032700 2.767937 0.617197
											}
										}
									}
								}
								JOINT RightHandRing1
								{
									OFFSET -8.571747 -0.031349 -2.884061
									CHANNELS 3 Xrotation Yrotation Zrotation
									JOINT RightHandRing2
									{
										OFFSET -3.671204 0.000000 0.000000
										CHANNELS 3 Xrotation Yrotation Zrotation
										JOINT RightHandRing3
										{
											OFFSET -2.728874 0.000000 0.000000
											CHANNELS 3 Xrotation Yrotation Zrotation
											End Site
											{
												OFFSET 0.815804 2.539261 0.577413
											}
										}
									}
								}
								JOINT RightHandPinky1
								{
									OFFSET -7.854561 -0.675247 -5.212970
									CHANNELS 3 Xrotation Yrotation Zrotation
									JOINT RightHandPinky2
									{
										OFFSET -3.068550 0.000000 0.000000
										CHANNELS 3 Xrotation Yrotation Zrotation
										JOINT RightHandPinky3
										{
											OFFSET -2.395981 0.000000 0.000000
											CHANNELS 3 Xrotation Yrotation Zrotation
											End Site
											{
												OFFSET 0.524605 2.267952 0.567413
											}
										}
									}
								}
							}
							JOINT RightSleeve
							{
								OFFSET -19.684753 -0.200165 0.476065
								CHANNELS 3 Xrotation Yrotation Zrotation
								End Site
								{
									OFFSET 0.031342 25.731255 -0.002917
								}
							}
						}
					}
				}
				JOINT Hood
				{
					OFFSET 0.369700 14.447800 -5.317800
					CHANNELS 3 Xrotation Yrotation Zrotation
					JOINT Hood1
					{
						OFFSET 0.001700 -5.553802 -5.895100
						CHANNELS 3 Xrotation Yrotation Zrotation
						JOINT Hood2
						{
							OFFSET -0.000200 -8.380501 0.763600
							CHANNELS 3 Xrotation Yrotation Zrotation
							End Site
							{
								OFFSET 0.000000 8.415215 0.000000
							}
						}
					}
				}
				JOINT Left_Breast
				{
					OFFSET 5.682500 3.120102 3.188800
					CHANNELS 3 Xrotation Yrotation Zrotation
					End Site
					{
						OFFSET 0.000000 10.528564 0.000000
					}
				}
				JOINT Right_Breast
				{
					OFFSET -4.947600 3.120102 3.185900
					CHANNELS 3 Xrotation Yrotation Zrotation
					End Site
					{
						OFFSET 0.000000 10.528564 0.000000
					}
				}
				JOINT Whistle
				{
					OFFSET 0.368200 11.471298 0.095400
					CHANNELS 3 Xrotation Yrotation Zrotation
					JOINT Whistle1
					{
						OFFSET -0.002000 -6.349899 7.479800
						CHANNELS 3 Xrotation Yrotation Zrotation
						JOINT Whistle2
						{
							OFFSET -0.001300 -8.217598 4.717600
							CHANNELS 3 Xrotation Yrotation Zrotation
							End Site
							{
								OFFSET 0.000000 9.475479 0.000000
							}
						}
					}
				}
			}
		}
		JOINT Belly
		{
			OFFSET 0.212400 1.593002 3.163700
			CHANNELS 3 Xrotation Yrotation Zrotation
			End Site
			{
				OFFSET 0.000000 7.496635 0.000000
			}
		}
	}
	JOINT FitGrandmaFacialAnim_Joint
	{
		OFFSET 1.150000 -86.211197 -1.220100
		CHANNELS 3 Xrotation Yrotation Zrotation
		End Site
		{
			OFFSET 0.000000 31.666618 0.000000
		}
	}
}
MOTION
Frames: 4
Frame Time: 0.016667
44.258820 81.766838 23.638176 -10.165984 -57.616798 -11.124793 0.000001 0.000002 -0.000000 -9.697509 13.059565 6.570044 44.615349 -9.555261 1.437719 -30.962511 14.574191 3.237419 0.000000 -0.000002 0.000000 -0.000003 0.000003 -0.000001 0.000000 0.000002 -0.000000 -9.295701 13.503585 -16.735625 40.832695 -5.810628 -8.294149 25.516530 -0.923587 26.577939 -0.000002 -0.000001 0.000001 -0.000000 -0.000001 -0.000005 0.000000 0.000000 -0.000001 9.155954 8.934187 0.054404 2.556081 17.404589 -2.385636 3.099508 13.576342 -1.746532 -0.834490 -4.108948 0.255297 1.539946 -45.055941 4.111458 0.000000 0.000001 0.000000 0.000000 0.000001 0.000000 0.000000 0.000001 0.000000 0.000000 0.000001 0.000000 0.000000 0.000001 0.000000 0.000000 0.000001 0.000000 0.000000 0.000001 0.000000 0.000000 0.000001 0.000000 0.000000 0.000001 0.000000 0.000000 0.000001 0.000000 0.000000 0.000001 0.000000 0.000000 0.000001 0.000000 0.000000 0.000001 0.000000 0.000000 0.000001 0.000000 0.000000 0.000001 0.000000 0.000000 0.000001 0.000000 0.000000 0.000001 0.000000 0.000000 0.000001 0.000000 0.000000 0.000001 0.000000 -6.510681 -24.283964 -29.301512 -16.491705 27.629869 -48.402761 -0.000002 -37.042349 0.000016 20.414561 12.547341 -11.679929 -0.367422 1.022216 8.846094 11.332628 25.661885 5.956431 -0.000000 -0.000002 -0.000003 -3.147024 -1.008791 -32.685423 0.795793 2.949871 -30.188883 0.000003 -0.000001 -0.000001 1.080600 5.663162 -36.569994 0.703196 2.784818 -28.337840 0.000001 -0.000002 -0.000004 2.638188 7.725033 -36.880477 0.871335 3.075903 -31.625880 0.000003 0.000002 0.000001 4.773538 10.152496 -39.332044 0.944667 3.191718 -32.967298 0.000002 0.000003 0.000001 -0.000001 0.000002 -0.000000 16.094123 -29.062592 21.606089 17.231230 -22.622083 41.644801 0.000025 113.407505 -0.000027 50.459027 7.307194 26.799239 11.446983 0.444935 -2.639153 0.868409 -5.095153 -5.270586 0.000000 0.000002 -0.000005 -1.101646 2.714067 12.099570 0.231089 -1.450233 18.106196 0.000003 0.000000 0.000001 -0.590504 -0.253852 13.946822 0.529560 -2.158725 27.563017 0.000001 0.000001 0.000000 0.152618 -3.304649 16.160605 1.052585 -2.950890 39.255915 -0.000003 0.000000 -0.000001 1.396633 -6.662541 20.820587 0.310321 -1.673164 21.012867 -0.000001 0.000000 0.000001 -0.000000 -0.000001 -0.000000 -0.000000 -0.000001 -0.000000 -0.000000 -0.000001 -0.000000 -0.000000 -0.000001 -0.000000 -0.000000 -0.000001 -0.000000 -0.000000 -0.000001 -0.000000 -0.000000 -0.000001 0.000000 -0.000000 0.000001 -0.000000 -0.000000 0.000001 -0.000000 0.000000 0.000003 -0.000000 0.000001 0.000002 -0.000000 
44.343563 81.748520 24.675400 -10.755454 -56.843071 -11.599706 -0.000000 0.000001 0.000000 -8.610989 12.964210 5.536586 44.590023 -9.967418 1.728506 -31.630985 14.707030 4.176282 0.000000 0.000002 -0.000000 0.000001 -0.000004 0.000002 0.000000 0.000001 -0.000001 -11.462813 15.260116 -14.886705 45.459287 -4.576978 -8.483325 24.335139 0.903467 23.550762 -0.000000 0.000000 -0.000002 0.000001 0.000003 0.000001 0.000002 -0.000000 -0.000001 9.598408 8.003185 -0.015584 2.662959 17.145933 -2.401210 3.209018 13.582548 -1.840705 -0.835035 -4.107089 0.327522 1.616706 -45.330149 4.399506 -0.000000 0.000001 -0.000000 -0.000000 0.000001 -0.000000 -0.000000 0.000001 -0.000000 -0.000000 0.000001 -0.000000 -0.000000 0.000001 -0.000000 -0.000000 0.000001 -0.000000 -0.000000 0.000001 -0.000000 -0.000000 0.000001 -0.000000 -0.000000 0.000001 -0.000000 -0.000000 0.000001 -0.000000 -0.000000 0.000001 -0.000000 -0.000000 0.000001 -0.000000 -0.000000 0.000001 -0.000000 -0.000000 0.000001 -0.000000 -0.000000 0.000001 -0.000000 -0.000000 0.000001 -0.000000 -0.000000 0.000001 -0.000000 -0.000000 0.000001 -0.000000 -0.000000 0.000001 -0.000000 -6.690965 -24.917025 -29.325755 -17.150492 26.242823 -47.937731 -0.000002 -37.261400 0.000019 18.651155 12.125986 -10.193072 -0.303179 1.156293 8.901290 11.336626 25.654612 5.977726 -0.000000 0.000002 0.000003 -3.164697 -0.956383 -33.003587 0.813124 2.979426 -30.524051 0.000002 0.000002 0.000001 1.100516 5.692191 -36.934641 0.718679 2.813291 -28.654829 -0.000004 -0.000003 -0.000002 2.669897 7.741954 -37.250957 0.890073 3.106066 -31.973215 -0.000001 0.000000 0.000000 4.816357 10.146134 -39.734089 0.963078 3.219893 -33.296609 0.000005 0.000001 -0.000003 0.000001 0.000000 -0.000000 16.288802 -29.166708 21.993783 17.892143 -24.268786 42.118727 0.000066 113.885454 -0.000058 41.063818 5.287862 26.351239 11.448290 0.442797 -2.640235 0.869862 -5.099411 -5.271809 0.000002 0.000004 0.000000 -1.117748 2.690271 12.294192 0.236122 -1.465572 18.304403 -0.000007 0.000001 0.000002 -0.596860 -0.274208 14.142345 0.537014 -2.172932 27.760221 -0.000001 0.000001 -0.000001 0.155906 -3.319400 16.357186 1.061197 -2.961384 39.422954 0.000002 -0.000003 0.000001 1.410548 -6.670726 21.018333 0.316103 -1.688109 21.209795 -0.000002 0.000000 0.000001 -0.000001 -0.000002 -0.000001 0.000000 -0.000001 0.000000 0.000000 -0.000001 0.000000 0.000000 -0.000001 0.000000 0.000000 -0.000001 0.000000 0.000000 -0.000001 0.000000 0.000000 -0.000001 0.000000 -0.000001 0.000000 0.000000 -0.000001 0.000000 0.000000 -0.000000 -0.000003 0.000000 -0.000000 0.000001 0.000000 
44.433846 81.819855 25.734770 -11.205180 -55.846229 -12.053062 0.000000 0.000002 0.000000 -7.462093 12.864924 4.671671 44.243274 -10.092118 1.986088 -32.026801 14.324319 4.931910 -0.000000 0.000000 0.000000 -0.000000 -0.000003 0.000003 0.000001 0.000002 -0.000000 -14.142666 16.804374 -12.526192 50.966411 -4.563557 -8.631456 20.494756 3.459550 20.713180 -0.000001 0.000000 -0.000002 -0.000001 -0.000002 0.000001 0.000001 -0.000001 -0.000001 10.014260 6.957471 0.100532 2.778477 16.848642 -2.408987 3.327780 13.548338 -1.925065 -0.836519 -4.091357 0.390946 1.663304 -45.506600 4.655202 0.000000 -0.000001 0.000000 0.000000 -0.000001 0.000000 0.000000 -0.000001 0.000000 0.000000 -0.000001 0.000000 0.000000 -0.000001 0.000000 0.000000 -0.000001 0.000000 0.000000 -0.000001 0.000000 0.000000 -0.000001 0.000000 0.000000 -0.000001 0.000000 0.000000 -0.000001 0.000000 0.000000 -0.000001 0.000000 0.000000 -0.000001 0.000000 0.000000 -0.000001 0.000000 0.000000 -0.000001 0.000000 0.000000 -0.000001 0.000000 0.000000 -0.000001 0.000000 0.000000 -0.000001 0.000000 0.000000 -0.000001 0.000000 0.000000 -0.000001 0.000000 -6.858134 -25.585241 -29.281240 -17.849555 24.629995 -47.582035 -0.000012 -37.102366 -0.000007 17.190215 11.684770 -8.623606 -0.239663 1.289017 8.955654 11.340600 25.647449 5.998806 0.000001 0.000001 -0.000004 -3.181870 -0.904432 -33.318428 0.830461 3.008585 -30.855725 -0.000006 -0.000003 0.000002 1.120394 5.720787 -37.295544 0.734144 2.841393 -28.968516 0.000000 0.000001 -0.000001 2.701357 7.758514 -37.617677 0.908762 3.135786 -32.316944 -0.000001 0.000000 -0.000001 4.858553 10.139639 -40.131938 0.981460 3.247662 -33.622521 0.000000 0.000001 -0.000002 0.000001 -0.000003 0.000001 16.428053 -29.286140 22.283887 18.343101 -25.660568 42.553059 -0.000016 114.043976 0.000006 34.092517 4.326359 26.246914 11.449757 0.440229 -2.641556 0.872407 -5.108724 -5.273699 -0.000002 0.000002 -0.000001 -1.093846 2.717393 12.021027 0.229010 -1.443909 18.024094 -0.000008 0.000000 0.000003 -0.586987 -0.249508 13.867932 0.526560 -2.152980 27.483395 -0.000004 -0.000000 -0.000002 0.150487 -3.295855 16.081658 1.039528 -2.934866 39.001514 0.000002 -0.000003 -0.000001 1.388042 -6.651383 20.741454 0.308000 -1.667103 20.933205 -0.000006 0.000000 0.000002 -0.000003 -0.000001 0.000001 -0.000000 0.000001 -0.000000 -0.000000 0.000001 -0.000000 -0.000000 0.000001 -0.000000 -0.000000 0.000001 -0.000000 -0.000000 0.000001 -0.000000 -0.000000 0.000001 -0.000000 -0.000000 0.000001 -0.000000 -0.000000 0.000001 -0.000000 -0.000000 0.000002 -0.000000 0.000000 0.000002 0.000000 
44.509563 81.954956 26.810930 -11.411407 -54.586564 -12.374672 -0.000000 -0.000002 0.000000 -6.348983 12.760329 4.031361 43.662411 -9.991686 2.150611 -32.197389 13.384440 5.533868 0.000000 -0.000000 0.000000 -0.000000 -0.000001 0.000000 0.000001 0.000001 0.000000 -16.739265 17.847988 -9.978929 55.644523 -4.944958 -8.504404 16.456827 6.883176 18.119992 -0.000000 0.000003 -0.000004 -0.000000 0.000002 -0.000000 0.000002 -0.000003 0.000000 10.355345 5.742276 0.363409 2.886333 16.500535 -2.402979 3.439224 13.460950 -1.993054 -0.825260 -4.058133 0.451981 1.734946 -45.565227 4.903150 0.000000 0.000002 0.000001 0.000000 0.000002 0.000001 0.000000 0.000002 0.000001 0.000000 0.000002 0.000001 0.000000 0.000002 0.000001 0.000000 0.000002 0.000001 0.000000 0.000002 0.000001 0.000000 0.000002 0.000001 0.000000 0.000002 0.000001 0.000000 0.000002 0.000001 0.000000 0.000002 0.000001 0.000000 0.000002 0.000001 0.000000 0.000002 0.000001 0.000000 0.000002 0.000001 0.000000 0.000002 0.000001 0.000000 0.000002 0.000001 0.000000 0.000002 0.000001 0.000000 0.000002 0.000001 0.000000 0.000002 0.000001 -7.018226 -26.326430 -29.169303 -18.434961 23.003983 -47.373997 -0.000006 -36.923282 0.000006 16.093160 11.349585 -7.118685 -0.177023 1.420185 9.009154 11.344519 25.640353 6.019605 0.000001 0.000002 -0.000002 -3.198569 -0.853012 -33.629331 0.847730 3.037271 -31.183314 0.000002 -0.000002 0.000002 1.140216 5.748943 -37.651978 0.749569 2.869060 -29.278313 -0.000000 -0.000002 0.000000 2.732491 7.774687 -37.979834 0.927426 3.165060 -32.656429 0.000003 0.000000 0.000004 4.900098 10.133015 -40.524872 0.999773 3.274997 -33.944398 -0.000002 -0.000003 0.000003 -0.000000 -0.000002 -0.000000 16.511907 -29.414701 22.476739 18.832087 -26.862717 43.040516 0.000044 114.021375 -0.000062 28.272805 3.883412 26.345216 11.451399 0.436225 -2.643300 0.877834 -5.126600 -5.276856 0.000003 -0.000001 0.000001 -1.053560 2.761299 11.566191 0.217388 -1.407675 17.556998 0.000001 -0.000003 0.000003 -0.570153 -0.209051 13.411030 0.509376 -2.119637 27.022414 0.000003 -0.000000 -0.000002 0.142053 -3.257694 15.622886 1.001903 -2.887835 38.260746 -0.000000 -0.000003 -0.000001 1.350205 -6.617252 20.280703 0.294742 -1.632049 20.472672 -0.000006 0.000000 -0.000000 0.000000 0.000001 0.000001 -0.000000 -0.000001 0.000000 -0.000000 -0.000001 0.000000 -0.000000 -0.000001 0.000000 -0.000000 -0.000001 0.000000 -0.000000 -0.000001 0.000000 -0.000000 -0.000001 0.000001 -0.000000 -0.000001 0.000000 -0.000000 -0.000001 0.000000 0.000000 0.000000 -0.000000 -0.000000 -0.000002 0.000000 
